PathFileType	4	(X/Y/Z)	Patient4_TMGait_0pt8_01_left_50.trc.trc
DataRate	CameraRate	NumFrames	NumMarkers	Units	OrigDataRate	OrigDataStartFrame	OrigNumFrames
87.500000000000	87.500000000000	4	33	mm	87.500000000000	53	       141
Frame#	Time	Sacral			L.Shoulder			Chest			R.Shoulder			Neck			R.ASIS			L.ASIS			R.Thigh.Superior			R.Thigh.Lateral			R.Thigh.Inferior			R.Patella			L.Thigh.Superior			L.Thigh.Lateral			L.Thigh.Inferior			L.Patella			L.Shank.Superior			L.Shank.Lateral			L.Shank.Inferior			R.Shank.Superior			R.Shank.Lateral			R.Shank.Inferior			R.Heel			R.Midfoot.Superior			R.Midfoot.Lateral			R.Toe			L.Heel			L.Midfoot.Lateral			L.Midfoot.Superior			L.Toe			L.Elbow			L.Wrist			R.Elbow			R.Wrist			
		X1	Y1	Z1	X2	Y2	Z2	X3	Y3	Z3	X4	Y4	Z4	X5	Y5	Z5	X6	Y6	Z6	X7	Y7	Z7	X8	Y8	Z8	X9	Y9	Z9	X10	Y10	Z10	X11	Y11	Z11	X12	Y12	Z12	X13	Y13	Z13	X14	Y14	Z14	X15	Y15	Z15	X16	Y16	Z16	X17	Y17	Z17	X18	Y18	Z18	X19	Y19	Z19	X20	Y20	Z20	X21	Y21	Z21	X22	Y22	Z22	X23	Y23	Z23	X24	Y24	Z24	X25	Y25	Z25	X26	Y26	Z26	X27	Y27	Z27	X28	Y28	Z28	X29	Y29	Z29	X30	Y30	Z30	X31	Y31	Z31	X32	Y32	Z32	X33	Y33	Z33	

53	56.314285714286	883.253808881300	1015.068937807360	462.093119871108	1074.513566058545	1442.191988962678	292.385057288456	1168.934169988399	1371.166975398860	457.942532109477	1077.087209365465	1442.629444230003	629.467735844853	1049.143183569121	1501.526428347277	449.579780431243	1104.692524286472	950.332979375794	586.461375131786	1101.519208380740	965.308789585447	313.573149377838	1186.698519145372	779.560437118832	566.332214039158	1144.054225850320	661.212459902972	643.245677424786	1237.860150520436	619.274408885135	570.431906099095	1252.791676119638	503.882473819084	596.806769359982	1142.670186396211	751.280758556291	339.136982850255	1044.504267023401	638.149049253239	287.977557254611	1127.790982986261	558.097268847442	349.288943059881	1125.523792013541	490.603317100502	362.541321191394	1100.591261524969	419.539253639700	357.791472800388	1010.997544060086	302.496317805314	311.830170619570	1064.761652978579	194.855719902599	387.919748738956	1168.877096627547	434.073743131179	600.918662816300	1039.106665487678	412.109829726745	653.354735290922	1015.301721505066	303.975626993985	606.664621545978	812.240416188008	270.664976801361	566.522499646146	966.188469949283	185.410314632414	617.155620892760	854.853430756408	199.758827358319	641.180737730676	1009.685130443440	62.679241375760	642.304443642845	937.703593646875	38.683280164226	437.822628618685	1011.815239314532	36.231166796456	357.235502443393	1095.144520507875	96.705036257748	383.696443125237	1223.529033529990	44.280844290514	356.357748875401	1069.696009802065	1094.255246506122	158.667226449354	1198.292647931782	865.850918558317	165.096730990442	1033.730877027591	1091.906807919065	733.429385192078	1240.639369640973	940.523585584325	713.919197126409	
54	56.325714285714	881.503334346786	1015.320289372558	460.257380038315	1074.986366192377	1442.559882237247	291.736561588965	1167.749702593299	1371.302528496601	458.064939123634	1074.605830596489	1442.852962121197	628.798922849121	1048.286417779675	1501.832013367563	448.743197903402	1102.208071022294	951.063079607006	586.150320251436	1100.391701835193	965.626606709605	313.129508240249	1187.393598285668	784.271979280051	565.746955831009	1148.187435989344	665.132554658391	643.460337206349	1243.092940977482	625.467138349975	570.969155603153	1261.195191208060	510.593010017316	597.520327943598	1138.791772485000	750.260141724516	339.054123751759	1038.829818282161	638.457509738882	287.302999935837	1120.270166916703	557.225545203789	349.122807872593	1116.876583692108	490.093636239866	362.466309936379	1091.965095778860	419.427243404123	357.445102075893	1002.114303159032	302.554094871913	311.429957154702	1055.726344697223	194.902744952143	387.749482558398	1179.394536436092	438.483752191225	601.553129487243	1050.404547408707	412.161753541657	653.539851146685	1030.118930296910	303.268925056777	606.748898004790	828.045075841187	263.097909884691	566.356651604552	985.018275246557	183.475279645425	617.253436901144	873.150607317892	193.726871751293	641.012729600856	1032.719459356202	62.402357247788	642.066509184039	928.441572021909	38.705030288577	437.733219731938	1002.596835625890	36.217421046945	357.183621456682	1085.935473177149	96.712976996624	383.591946683470	1214.291631656660	44.327076173581	356.316564602189	1079.491915257892	1095.887390549001	155.093092571389	1219.835768066944	874.581796884857	162.368972829888	1025.481871071765	1092.351443258866	731.669915333440	1216.590737018031	919.455010160022	716.970141103837	
55	56.337142857143	879.859082376137	1015.419941353422	458.560381776255	1075.549187616865	1442.831600480459	291.219287382021	1166.690219477416	1371.287869652198	458.255433127610	1072.327835328469	1442.910923558376	628.225411623865	1047.499021084002	1501.990226861751	448.035467901544	1099.818954062058	951.623519733392	585.920556603869	1099.361531713835	965.851744341305	312.732699342561	1187.844582984537	788.657191946968	565.391344317443	1151.752637310129	668.772019203895	643.749894091722	1247.672306285502	631.267664314251	571.638568725037	1268.764999082968	517.135230896906	598.337628724347	1134.717904341424	749.147391293040	339.315642883731	1033.131626367677	638.716058371064	286.644332323719	1112.549125881571	556.337561362763	349.098328748641	1108.039127969166	489.590627296686	362.431985509515	1083.165726071620	419.326074499245	357.143012974262	993.154467133413	302.574931279204	311.043837917113	1046.614131061830	194.946462338151	387.619115124960	1189.475837873176	442.523927136911	602.249542760661	1061.660298169580	411.186853071518	654.049053384132	1045.447827722532	301.556564158998	607.144895774675	844.805013085468	253.525819701084	566.815176648487	1005.064452379940	180.384471596517	617.778151179595	892.770374496064	185.991442492248	641.414692161624	1057.523494367905	61.257442946771	642.179913634927	919.171753159612	38.705979342424	437.666425162876	993.366220552075	36.192753924103	357.144482802086	1076.709623934183	96.727637462951	383.504067925056	1205.044125883568	44.400951406445	356.292131837202	1088.718392285628	1097.718153502370	151.787171601008	1240.768107136836	884.412553818674	160.126245244695	1017.502789439009	1092.703238367274	730.097394546475	1190.761625191245	900.360085301713	719.905800214485	
56	56.348571428571	878.327609904010	1015.356700229300	457.003168968264	1076.199888079133	1442.978437728657	290.838502944603	1165.766362677993	1371.095994635401	458.517828454197	1070.261991179488	1442.764387547607	627.762375709661	1046.797485662749	1501.976942982705	447.461896166254	1097.548938741535	951.973552804262	585.753776091391	1098.456937810827	965.977967581928	312.374362192868	1188.053583736826	792.599077249729	565.213147628121	1154.718771900061	672.006331571924	644.064697932910	1251.547595959830	636.510556590876	572.363465426834	1275.417177928325	523.342023046444	599.187424115885	1130.484289214030	747.935734339431	339.855973973466	1027.428754283861	638.912593516704	285.989108298888	1104.689006432757	555.428313261908	349.159279677049	1099.095375989121	489.085852838074	362.379560876324	1074.249048098543	419.224212897268	356.854995546957	984.146928119991	302.560250792928	310.652735483603	1037.442769358201	194.979311547014	387.508962920951	1199.024518373647	446.099490274913	602.958918421950	1072.867205272165	409.178349419895	654.872267825490	1061.251219140513	298.896970339857	607.855386151721	862.607046345396	242.095638912416	567.935891540486	1026.268774223303	176.275926308014	618.731781906300	913.747036217671	176.763037145799	642.436276027956	1083.967636852574	59.477587225805	642.714958288836	909.898564131223	38.687518535299	437.619526614951	984.124540913138	36.157221506214	357.115625991493	1067.469115657515	96.746340349252	383.429029908907	1195.788724980896	44.494018058452	356.282851358219	1097.319097997415	1099.665459808442	148.746746847970	1260.966402830707	895.298980848524	158.360595150170	1009.628933032760	1092.968730650424	728.682550277580	1163.447828984150	883.515678453045	722.680866820417	
